<svg id="visual" viewBox="0 0 900 600" width="900" height="600" xmlns="http://www.w3.org/2000/svg" xmlns:xlink="http://www.w3.org/1999/xlink" version="1.1"><rect x="0" y="0" width="900" height="600" fill="#001220"></rect><path d="M0 425L21.5 415.2C43 405.3 86 385.7 128.8 380.2C171.7 374.7 214.3 383.3 257.2 394C300 404.7 343 417.3 385.8 411.5C428.7 405.7 471.3 381.3 514.2 383.3C557 385.3 600 413.7 642.8 423.8C685.7 434 728.3 426 771.2 420.8C814 415.7 857 413.3 878.5 412.2L900 411L900 601L878.5 601C857 601 814 601 771.2 601C728.3 601 685.7 601 642.8 601C600 601 557 601 514.2 601C471.3 601 428.7 601 385.8 601C343 601 300 601 257.2 601C214.3 601 171.7 601 128.8 601C86 601 43 601 21.5 601L0 601Z" fill="#38233f"></path><path d="M0 402L21.5 404.8C43 407.7 86 413.3 128.8 424.3C171.7 435.3 214.3 451.7 257.2 457.3C300 463 343 458 385.8 451.8C428.7 445.7 471.3 438.3 514.2 438.7C557 439 600 447 642.8 449C685.7 451 728.3 447 771.2 448C814 449 857 455 878.5 458L900 461L900 601L878.5 601C857 601 814 601 771.2 601C728.3 601 685.7 601 642.8 601C600 601 557 601 514.2 601C471.3 601 428.7 601 385.8 601C343 601 300 601 257.2 601C214.3 601 171.7 601 128.8 601C86 601 43 601 21.5 601L0 601Z" fill="#462754"></path><path d="M0 468L21.5 462.8C43 457.7 86 447.3 128.8 453C171.7 458.7 214.3 480.3 257.2 483.8C300 487.3 343 472.7 385.8 470.3C428.7 468 471.3 478 514.2 486C557 494 600 500 642.8 491.5C685.7 483 728.3 460 771.2 450C814 440 857 443 878.5 444.5L900 446L900 601L878.5 601C857 601 814 601 771.2 601C728.3 601 685.7 601 642.8 601C600 601 557 601 514.2 601C471.3 601 428.7 601 385.8 601C343 601 300 601 257.2 601C214.3 601 171.7 601 128.8 601C86 601 43 601 21.5 601L0 601Z" fill="#542c6b"></path><path d="M0 515L21.5 515.5C43 516 86 517 128.8 515.7C171.7 514.3 214.3 510.7 257.2 505.5C300 500.3 343 493.7 385.8 497.8C428.7 502 471.3 517 514.2 523.8C557 530.7 600 529.3 642.8 528C685.7 526.7 728.3 525.3 771.2 527.2C814 529 857 534 878.5 536.5L900 539L900 601L878.5 601C857 601 814 601 771.2 601C728.3 601 685.7 601 642.8 601C600 601 557 601 514.2 601C471.3 601 428.7 601 385.8 601C343 601 300 601 257.2 601C214.3 601 171.7 601 128.8 601C86 601 43 601 21.5 601L0 601Z" fill="#603183"></path><path d="M0 544L21.5 544C43 544 86 544 128.8 544.2C171.7 544.3 214.3 544.7 257.2 542C300 539.3 343 533.7 385.8 535C428.7 536.3 471.3 544.7 514.2 548.8C557 553 600 553 642.8 555.7C685.7 558.3 728.3 563.7 771.2 558.8C814 554 857 539 878.5 531.5L900 524L900 601L878.5 601C857 601 814 601 771.2 601C728.3 601 685.7 601 642.8 601C600 601 557 601 514.2 601C471.3 601 428.7 601 385.8 601C343 601 300 601 257.2 601C214.3 601 171.7 601 128.8 601C86 601 43 601 21.5 601L0 601Z" fill="#6b369c"></path></svg>